<svg id="visual" viewBox="0 0 1440 100" width="1440" height="100" xmlns="http://www.w3.org/2000/svg" xmlns:xlink="http://www.w3.org/1999/xlink" version="1.1"><rect x="0" y="0" width="1440" height="100" fill="#403030"></rect><path d="M0 79L120 79L120 53L240 53L240 24L360 24L360 73L480 73L480 39L600 39L600 61L720 61L720 2L840 2L840 27L960 27L960 4L1080 4L1080 10L1200 10L1200 26L1320 26L1320 54L1440 54L1440 47L1440 101L1440 101L1320 101L1320 101L1200 101L1200 101L1080 101L1080 101L960 101L960 101L840 101L840 101L720 101L720 101L600 101L600 101L480 101L480 101L360 101L360 101L240 101L240 101L120 101L120 101L0 101Z" fill="#c0b9b9" stroke-linecap="square" stroke-linejoin="miter"></path></svg>