<svg id="visual" viewBox="0 0 1440 100" width="1440" height="100" xmlns="http://www.w3.org/2000/svg" xmlns:xlink="http://www.w3.org/1999/xlink" version="1.1"><rect x="0" y="0" width="1440" height="100" fill="#757070"></rect><path d="M0 58L20 53C40 48 80 38 120 38.7C160 39.3 200 50.7 240 62.2C280 73.7 320 85.3 360 76.8C400 68.3 440 39.7 480 28.7C520 17.7 560 24.3 600 35.2C640 46 680 61 720 58.2C760 55.3 800 34.7 840 37.3C880 40 920 66 960 71.7C1000 77.3 1040 62.7 1080 48.2C1120 33.7 1160 19.3 1200 26.7C1240 34 1280 63 1320 65.2C1360 67.3 1400 42.7 1420 30.3L1440 18L1440 0L1420 0C1400 0 1360 0 1320 0C1280 0 1240 0 1200 0C1160 0 1120 0 1080 0C1040 0 1000 0 960 0C920 0 880 0 840 0C800 0 760 0 720 0C680 0 640 0 600 0C560 0 520 0 480 0C440 0 400 0 360 0C320 0 280 0 240 0C200 0 160 0 120 0C80 0 40 0 20 0L0 0Z" fill="#c0b9b9" stroke-linecap="round" stroke-linejoin="miter"></path></svg>