<svg id="visual" viewBox="0 0 1440 600" width="1440" height="600" xmlns="http://www.w3.org/2000/svg" xmlns:xlink="http://www.w3.org/1999/xlink" version="1.1"><rect x="0" y="0" width="1440" height="600" fill="#3f3232"></rect><defs><linearGradient id="grad1_0" x1="58.3%" y1="100%" x2="100%" y2="0%"><stop offset="2.0000000000000036%" stop-color="#fa873c" stop-opacity="1"></stop><stop offset="98%" stop-color="#fa873c" stop-opacity="1"></stop></linearGradient></defs><defs><linearGradient id="grad1_1" x1="58.3%" y1="100%" x2="100%" y2="0%"><stop offset="2.0000000000000036%" stop-color="#fa873c" stop-opacity="1"></stop><stop offset="98%" stop-color="#d06c45" stop-opacity="1"></stop></linearGradient></defs><defs><linearGradient id="grad1_2" x1="58.3%" y1="100%" x2="100%" y2="0%"><stop offset="2.0000000000000036%" stop-color="#a15545" stop-opacity="1"></stop><stop offset="98%" stop-color="#d06c45" stop-opacity="1"></stop></linearGradient></defs><defs><linearGradient id="grad1_3" x1="58.3%" y1="100%" x2="100%" y2="0%"><stop offset="2.0000000000000036%" stop-color="#a15545" stop-opacity="1"></stop><stop offset="98%" stop-color="#70433f" stop-opacity="1"></stop></linearGradient></defs><defs><linearGradient id="grad1_4" x1="58.3%" y1="100%" x2="100%" y2="0%"><stop offset="2.0000000000000036%" stop-color="#3f3232" stop-opacity="1"></stop><stop offset="98%" stop-color="#70433f" stop-opacity="1"></stop></linearGradient></defs><defs><linearGradient id="grad2_0" x1="0%" y1="100%" x2="41.7%" y2="0%"><stop offset="2.0000000000000036%" stop-color="#fa873c" stop-opacity="1"></stop><stop offset="98%" stop-color="#fa873c" stop-opacity="1"></stop></linearGradient></defs><defs><linearGradient id="grad2_1" x1="0%" y1="100%" x2="41.7%" y2="0%"><stop offset="2.0000000000000036%" stop-color="#d06c45" stop-opacity="1"></stop><stop offset="98%" stop-color="#fa873c" stop-opacity="1"></stop></linearGradient></defs><defs><linearGradient id="grad2_2" x1="0%" y1="100%" x2="41.7%" y2="0%"><stop offset="2.0000000000000036%" stop-color="#d06c45" stop-opacity="1"></stop><stop offset="98%" stop-color="#a15545" stop-opacity="1"></stop></linearGradient></defs><defs><linearGradient id="grad2_3" x1="0%" y1="100%" x2="41.7%" y2="0%"><stop offset="2.0000000000000036%" stop-color="#70433f" stop-opacity="1"></stop><stop offset="98%" stop-color="#a15545" stop-opacity="1"></stop></linearGradient></defs><defs><linearGradient id="grad2_4" x1="0%" y1="100%" x2="41.7%" y2="0%"><stop offset="2.0000000000000036%" stop-color="#70433f" stop-opacity="1"></stop><stop offset="98%" stop-color="#3f3232" stop-opacity="1"></stop></linearGradient></defs><g transform="translate(1440, 600)"><path d="M-390 0C-393.3 -46.2 -396.6 -92.5 -370.9 -120.5C-345.2 -148.6 -290.5 -158.4 -263.7 -191.6C-237 -224.8 -238.3 -281.3 -211 -290.4C-183.7 -299.6 -127.7 -261.4 -87.8 -270.1C-47.8 -278.8 -23.9 -334.4 0 -390L0 0Z" fill="#583a39"></path><path d="M-312 0C-314.7 -37 -317.3 -74 -296.7 -96.4C-276.2 -118.9 -232.4 -126.8 -211 -153.3C-189.6 -179.8 -190.7 -225 -168.8 -232.3C-146.9 -239.7 -102.2 -209.1 -70.2 -216.1C-38.3 -223 -19.1 -267.5 0 -312L0 0Z" fill="#894c43"></path><path d="M-234 0C-236 -27.7 -238 -55.5 -222.5 -72.3C-207.1 -89.1 -174.3 -95.1 -158.2 -115C-142.2 -134.9 -143 -168.8 -126.6 -174.3C-110.2 -179.8 -76.6 -156.8 -52.7 -162.1C-28.7 -167.3 -14.3 -200.6 0 -234L0 0Z" fill="#b96046"></path><path d="M-156 0C-157.3 -18.5 -158.7 -37 -148.4 -48.2C-138.1 -59.4 -116.2 -63.4 -105.5 -76.6C-94.8 -89.9 -95.3 -112.5 -84.4 -116.2C-73.5 -119.8 -51.1 -104.6 -35.1 -108C-19.1 -111.5 -9.6 -133.8 0 -156L0 0Z" fill="#e57941"></path><path d="M-78 0C-78.7 -9.2 -79.3 -18.5 -74.2 -24.1C-69 -29.7 -58.1 -31.7 -52.7 -38.3C-47.4 -45 -47.7 -56.3 -42.2 -58.1C-36.7 -59.9 -25.5 -52.3 -17.6 -54C-9.6 -55.8 -4.8 -66.9 0 -78L0 0Z" fill="#fa873c"></path></g><g transform="translate(0, 0)"><path d="M390 0C337.9 28.6 285.7 57.2 261.5 85C237.4 112.8 241.2 139.8 237.9 172.8C234.5 205.8 224.2 244.7 204.5 281.5C184.9 318.4 156.1 353.2 120.5 370.9C84.9 388.6 42.4 389.3 0 390L0 0Z" fill="#583a39"></path><path d="M312 0C270.3 22.9 228.6 45.7 209.2 68C189.9 90.2 192.9 111.9 190.3 138.2C187.6 164.6 179.3 195.8 163.6 225.2C148 254.7 124.9 282.5 96.4 296.7C67.9 310.9 34 311.5 0 312L0 0Z" fill="#894c43"></path><path d="M234 0C202.7 17.2 171.4 34.3 156.9 51C142.4 67.7 144.7 83.9 142.7 103.7C140.7 123.5 134.5 146.8 122.7 168.9C111 191 93.7 211.9 72.3 222.5C50.9 233.2 25.5 233.6 0 234L0 0Z" fill="#b96046"></path><path d="M156 0C135.1 11.4 114.3 22.9 104.6 34C94.9 45.1 96.5 55.9 95.1 69.1C93.8 82.3 89.7 97.9 81.8 112.6C74 127.4 62.5 141.3 48.2 148.4C34 155.5 17 155.7 0 156L0 0Z" fill="#e57941"></path><path d="M78 0C67.6 5.7 57.1 11.4 52.3 17C47.5 22.6 48.2 28 47.6 34.6C46.9 41.2 44.8 48.9 40.9 56.3C37 63.7 31.2 70.6 24.1 74.2C17 77.7 8.5 77.9 0 78L0 0Z" fill="#fa873c"></path></g></svg>