<svg id="visual" viewBox="0 0 1440 100" width="1440" height="100" xmlns="http://www.w3.org/2000/svg" xmlns:xlink="http://www.w3.org/1999/xlink" version="1.1"><rect x="0" y="0" width="1440" height="100" fill="#c0b9b9"></rect><path d="M0 40L20 45C40 50 80 60 120 59.3C160 58.7 200 47.3 240 35.8C280 24.3 320 12.7 360 21.2C400 29.7 440 58.3 480 69.3C520 80.3 560 73.7 600 62.8C640 52 680 37 720 39.8C760 42.7 800 63.3 840 60.7C880 58 920 32 960 26.3C1000 20.7 1040 35.3 1080 49.8C1120 64.3 1160 78.7 1200 71.3C1240 64 1280 35 1320 32.8C1360 30.7 1400 55.3 1420 67.7L1440 80L1440 101L1420 101C1400 101 1360 101 1320 101C1280 101 1240 101 1200 101C1160 101 1120 101 1080 101C1040 101 1000 101 960 101C920 101 880 101 840 101C800 101 760 101 720 101C680 101 640 101 600 101C560 101 520 101 480 101C440 101 400 101 360 101C320 101 280 101 240 101C200 101 160 101 120 101C80 101 40 101 20 101L0 101Z" fill="#757070" stroke-linecap="round" stroke-linejoin="miter"></path></svg>