<svg id="visual" viewBox="0 0 1440 200" width="1440" height="200" xmlns="http://www.w3.org/2000/svg" xmlns:xlink="http://www.w3.org/1999/xlink" version="1.1"><rect x="0" y="0" width="1440" height="200" fill="#403030"></rect><path d="M0 75L20 89.3C40 103.7 80 132.3 120 140.5C160 148.7 200 136.3 240 117.5C280 98.7 320 73.3 360 65.7C400 58 440 68 480 88.5C520 109 560 140 600 156.3C640 172.7 680 174.3 720 147.2C760 120 800 64 840 65.2C880 66.3 920 124.7 960 153.5C1000 182.3 1040 181.7 1080 152.3C1120 123 1160 65 1200 57.7C1240 50.3 1280 93.7 1320 93.2C1360 92.7 1400 48.3 1420 26.2L1440 4L1440 0L1420 0C1400 0 1360 0 1320 0C1280 0 1240 0 1200 0C1160 0 1120 0 1080 0C1040 0 1000 0 960 0C920 0 880 0 840 0C800 0 760 0 720 0C680 0 640 0 600 0C560 0 520 0 480 0C440 0 400 0 360 0C320 0 280 0 240 0C200 0 160 0 120 0C80 0 40 0 20 0L0 0Z" fill="#c0b9b9" stroke-linecap="round" stroke-linejoin="miter"></path></svg>